<?xml version="1.0" encoding="UTF-8" standalone="no"?>
<svg
   version="1.1"
   viewBox="0 0 256 256"
   id="svg3"
   sodipodi:docname="archlinux-logo-catppuccin-macchiato-lavender.svg"
   inkscape:version="1.3.2 (091e20ef0f, 2023-11-25, custom)"
   xmlns:inkscape="http://www.inkscape.org/namespaces/inkscape"
   xmlns:sodipodi="http://sodipodi.sourceforge.net/DTD/sodipodi-0.dtd"
   xmlns="http://www.w3.org/2000/svg"
   xmlns:svg="http://www.w3.org/2000/svg">
  <defs
     id="defs3" />
  <sodipodi:namedview
     id="namedview3"
     pagecolor="#505050"
     bordercolor="#eeeeee"
     borderopacity="1"
     inkscape:showpageshadow="0"
     inkscape:pageopacity="0"
     inkscape:pagecheckerboard="0"
     inkscape:deskcolor="#505050"
     inkscape:zoom="3.7738437"
     inkscape:cx="129.17864"
     inkscape:cy="142.16275"
     inkscape:window-width="1920"
     inkscape:window-height="1052"
     inkscape:window-x="0"
     inkscape:window-y="0"
     inkscape:window-maximized="1"
     inkscape:current-layer="svg3" />
  <g
     fill="#1793d1"
     id="g3"
     style="fill:#b6bcf8;fill-opacity:1"
     transform="matrix(0.8999297,0,0,0.8999297,12.113551,12.809403)">
    <path
       d="m 127.98,12.07 c -10.316,25.309 -16.543,41.855 -28.031,66.41 7.043,7.4609 15.691,16.156 29.734,25.977 C 114.585,98.25 104.288,92.012 96.589,85.539 81.886,116.219 58.847,159.93 12.097,243.929 48.843,222.71 77.327,209.636 103.87,204.64 c -1.1406,-4.8945 -1.7852,-10.195 -1.7422,-15.734 l 0.043,-1.1719 c 0.58203,-23.551 12.828,-41.645 27.336,-40.418 14.508,1.2266 25.781,21.316 25.199,44.867 -0.10938,4.4219 -0.60938,8.6914 -1.4805,12.641 26.258,5.1328 54.438,18.18 90.684,39.105 -7.1484,-13.156 -13.527,-25.016 -19.621,-36.316 -9.5938,-7.4336 -19.605,-17.117 -40.023,-27.594 14.035,3.6406 24.082,7.8516 31.914,12.555 -61.941,-115.32 -66.957,-130.66 -88.199,-180.5 z"
       fill-rule="evenodd"
       id="path1"
       style="fill:#b6bcf8;fill-opacity:1" />
  </g>
</svg>
