<?xml version="1.0" encoding="UTF-8" standalone="no"?>
<svg
   width="22"
   height="22"
   version="1"
   id="svg1"
   sodipodi:docname="telegram-mute-panel.svg"
   inkscape:version="1.3.2 (091e20ef0f, 2023-11-25, custom)"
   xmlns:inkscape="http://www.inkscape.org/namespaces/inkscape"
   xmlns:sodipodi="http://sodipodi.sourceforge.net/DTD/sodipodi-0.dtd"
   xmlns="http://www.w3.org/2000/svg"
   xmlns:svg="http://www.w3.org/2000/svg">
  <sodipodi:namedview
     id="namedview1"
     pagecolor="#505050"
     bordercolor="#eeeeee"
     borderopacity="1"
     inkscape:showpageshadow="0"
     inkscape:pageopacity="0"
     inkscape:pagecheckerboard="0"
     inkscape:deskcolor="#505050"
     inkscape:zoom="39.772727"
     inkscape:cx="11"
     inkscape:cy="11"
     inkscape:window-width="1920"
     inkscape:window-height="1052"
     inkscape:window-x="0"
     inkscape:window-y="0"
     inkscape:window-maximized="1"
     inkscape:current-layer="svg1" />
  <defs
     id="defs1">
    <style
       id="current-color-scheme"
       type="text/css">
   .ColorScheme-Text { color:#dfdfdf; } .ColorScheme-Highlight { color:#4285f4; } .ColorScheme-NeutralText { color:#ff9800; } .ColorScheme-PositiveText { color:#4caf50; } .ColorScheme-NegativeText { color:#f44336; }
  </style>
  </defs>
  <circle
     style="fill:currentColor;stroke-width:0.9"
     class="ColorScheme-Text"
     cx="6.0499997"
     cy="16.4"
     r="1.8"
     id="circle1" />
  <path
     style="fill:currentColor;stroke-width:0.9"
     class="ColorScheme-Text"
     d="M 17.468722,17.573282 C 17.73979,17.042145 19.297373,7.9602984 19.520036,5.6126211 19.760922,3.2862737 18.504914,3.7188778 17.349187,4.111871 14.513738,5.0793761 5.548949,8.5507388 3.0951125,9.8450431 2.4910001,10.098186 2.2298786,10.527694 2.6694404,10.899444 c 0.3784626,0.315102 1.763334,0.747885 2.8801962,0.967513 0.9520749,0.291472 1.691604,0.01229 2.3742513,-0.37684 1.6405307,-0.982899 6.5289421,-3.6585395 6.7921881,-3.8327817 0.263247,-0.1742421 0.551366,0.1491243 0.404036,0.3056674 -0.147331,0.1565424 -3.609381,3.2939403 -4.746051,4.7124603 -0.6021912,0.779966 -0.5841534,1.19638 0.03447,1.68822 1.387836,1.09974 5.095851,3.606865 5.647591,3.758404 0.703551,0.193234 1.115599,0.03315 1.412603,-0.548805 z"
     id="path1" />
</svg>
