<?xml version="1.0" encoding="UTF-8" standalone="no"?>
<svg
   width="24"
   height="24"
   version="1"
   id="svg1"
   sodipodi:docname="telegram-panel.svg"
   inkscape:version="1.3.2 (091e20ef0f, 2023-11-25, custom)"
   xmlns:inkscape="http://www.inkscape.org/namespaces/inkscape"
   xmlns:sodipodi="http://sodipodi.sourceforge.net/DTD/sodipodi-0.dtd"
   xmlns="http://www.w3.org/2000/svg"
   xmlns:svg="http://www.w3.org/2000/svg">
  <sodipodi:namedview
     id="namedview1"
     pagecolor="#505050"
     bordercolor="#eeeeee"
     borderopacity="1"
     inkscape:showpageshadow="0"
     inkscape:pageopacity="0"
     inkscape:pagecheckerboard="0"
     inkscape:deskcolor="#505050"
     inkscape:zoom="36.458333"
     inkscape:cx="12"
     inkscape:cy="12"
     inkscape:window-width="1920"
     inkscape:window-height="1052"
     inkscape:window-x="0"
     inkscape:window-y="0"
     inkscape:window-maximized="1"
     inkscape:current-layer="svg1" />
  <defs
     id="defs1">
    <style
       id="current-color-scheme"
       type="text/css">
   .ColorScheme-Text { color:#dfdfdf; } .ColorScheme-Highlight { color:#4285f4; } .ColorScheme-NeutralText { color:#ff9800; } .ColorScheme-PositiveText { color:#4caf50; } .ColorScheme-NegativeText { color:#f44336; }
  </style>
  </defs>
  <path
     style="fill:currentColor;stroke-width:0.9"
     class="ColorScheme-Text"
     d="M 18.468722,18.573282 C 18.73979,18.042145 20.297372,8.9602984 20.520036,6.6126211 20.760922,4.2862737 19.504914,4.7188778 18.349187,5.1118711 15.513738,6.0793761 6.5489491,9.5507392 4.0951126,10.845043 c -0.6041124,0.253143 -0.8652339,0.682651 -0.4256721,1.054401 0.3784626,0.315102 1.763334,0.747885 2.8801962,0.967513 0.9520749,0.291472 1.691604,0.01229 2.3742513,-0.37684 1.640531,-0.982899 6.528942,-3.6585395 6.792188,-3.8327816 0.263247,-0.1742422 0.551366,0.1491242 0.404036,0.3056673 -0.147331,0.1565424 -3.609381,3.2939403 -4.746051,4.7124603 -0.602191,0.779966 -0.584153,1.19638 0.03447,1.68822 1.387836,1.09974 5.095851,3.606865 5.647591,3.758404 0.703551,0.193234 1.115599,0.03315 1.412603,-0.548805 z"
     id="path1" />
</svg>
